{
  "accessors": [
    {
      "bufferView": 2,
      "componentType": 5126,
      "count": 2041,
      "max": [
        0.7120440006256104,
        0.22770699858665466,
        1.7713669538497925
      ],
      "min": [
        -0.7120069861412048,
        -0.23981299996376038,
        -0.0005750000127591193
      ],
      "type": "VEC3"
    },
    {
      "bufferView": 2,
      "byteOffset": 24492,
      "componentType": 5126,
      "count": 2041,
      "max": [
        0.9993233680725098,
        0.9996361136436462,
        0.999872088432312
      ],
      "min": [
        -0.9994208812713623,
        -0.9999955892562866,
        -0.999997615814209
      ],
      "type": "VEC3"
    },
    {
      "bufferView": 1,
      "componentType": 5126,
      "count": 2041,
      "max": [
        0.9946290254592896,
        0.9908909797668457
      ],
      "min": [
        -0.21777300536632538,
        0.005859000142663717
      ],
      "type": "VEC2"
    },
    {
      "bufferView": 0,
      "componentType": 5125,
      "count": 9570,
      "type": "SCALAR"
    }
  ],
  "asset": {
    "extras": {
      "author": "SML woody (https://sketchfab.com/jackxxss87)",
      "license": "CC-BY-4.0 (http://creativecommons.org/licenses/by/4.0/)",
      "source": "https://sketchfab.com/3d-models/gta-v-chimpanzee-5bef2b40aae345e7942737fbedce2096",
      "title": "GTA V Chimpanzee"
    },
    "generator": "Sketchfab-16.36.0",
    "version": "2.0"
  },
  "bufferViews": [
    {
      "buffer": 0,
      "byteLength": 38280,
      "name": "floatBufferViews",
      "target": 34963
    },
    {
      "buffer": 0,
      "byteLength": 16328,
      "byteOffset": 38280,
      "byteStride": 8,
      "name": "floatBufferViews",
      "target": 34962
    },
    {
      "buffer": 0,
      "byteLength": 48984,
      "byteOffset": 54608,
      "byteStride": 12,
      "name": "floatBufferViews",
      "target": 34962
    }
  ],
  "buffers": [
    {
      "byteLength": 103592,
      "uri": "scene.bin"
    }
  ],
  "images": [
    {
      "uri": "textures/Material.001_baseColor.png"
    }
  ],
  "materials": [
    {
      "doubleSided": true,
      "name": "Material.001",
      "pbrMetallicRoughness": {
        "baseColorTexture": {
          "index": 0
        },
        "metallicFactor": 0.0,
        "roughnessFactor": 0.6
      }
    }
  ],
  "meshes": [
    {
      "name": "Object_0",
      "primitives": [
        {
          "attributes": {
            "NORMAL": 1,
            "POSITION": 0,
            "TEXCOORD_0": 2
          },
          "indices": 3,
          "material": 0,
          "mode": 4
        }
      ]
    }
  ],
  "nodes": [
    {
      "children": [
        1
      ],
      "matrix": [
        1.0,
        0.0,
        0.0,
        0.0,
        0.0,
        2.220446049250313e-16,
        -1.0,
        0.0,
        0.0,
        1.0,
        2.220446049250313e-16,
        0.0,
        0.0,
        0.0,
        0.0,
        1.0
      ],
      "name": "Sketchfab_model"
    },
    {
      "children": [
        2
      ],
      "name": "7837bba350d44320a404c5094b6d3d2d.obj.cleaner.materialmerger.gles"
    },
    {
      "mesh": 0,
      "name": "Object_2"
    }
  ],
  "samplers": [
    {
      "magFilter": 9729,
      "minFilter": 9987,
      "wrapS": 10497,
      "wrapT": 10497
    }
  ],
  "scene": 0,
  "scenes": [
    {
      "name": "Sketchfab_Scene",
      "nodes": [
        0
      ]
    }
  ],
  "textures": [
    {
      "sampler": 0,
      "source": 0
    }
  ]
}
