{
  "accessors": [
    {
      "bufferView": 2,
      "componentType": 5126,
      "count": 28816,
      "max": [
        0.49218806624412537,
        0.49218958616256714,
        0.22022442519664764
      ],
      "min": [
        -0.492186963558197,
        -0.49218544363975525,
        -0.08049370348453522
      ],
      "type": "VEC3"
    },
    {
      "bufferView": 2,
      "byteOffset": 345792,
      "componentType": 5126,
      "count": 28816,
      "max": [
        1.0,
        1.0,
        1.0
      ],
      "min": [
        -1.0,
        -1.0,
        -1.0
      ],
      "type": "VEC3"
    },
    {
      "bufferView": 1,
      "componentType": 5126,
      "count": 28816,
      "max": [
        0.9921879768371582,
        0.9921879768371582
      ],
      "min": [
        0.007813000120222569,
        0.007813000120222569
      ],
      "type": "VEC2"
    },
    {
      "bufferView": 0,
      "componentType": 5125,
      "count": 60750,
      "type": "SCALAR"
    }
  ],
  "asset": {
    "extras": {
      "author": "Lite (https://sketchfab.com/lite)",
      "license": "CC-BY-4.0 (http://creativecommons.org/licenses/by/4.0/)",
      "source": "https://sketchfab.com/3d-models/volcano-test-9b962b3d0e1c40b98cb44f20bc35283f",
      "title": "Volcano Test"
    },
    "generator": "Sketchfab-15.32.0",
    "version": "2.0"
  },
  "bufferViews": [
    {
      "buffer": 0,
      "byteLength": 243000,
      "name": "floatBufferViews",
      "target": 34963
    },
    {
      "buffer": 0,
      "byteLength": 230528,
      "byteOffset": 243000,
      "byteStride": 8,
      "name": "floatBufferViews",
      "target": 34962
    },
    {
      "buffer": 0,
      "byteLength": 691584,
      "byteOffset": 473528,
      "byteStride": 12,
      "name": "floatBufferViews",
      "target": 34962
    }
  ],
  "buffers": [
    {
      "byteLength": 1165112,
      "uri": "scene.bin"
    }
  ],
  "images": [
    {
      "uri": "textures/Material.002_baseColor.png"
    },
    {
      "uri": "textures/Material.002_emissive.png"
    }
  ],
  "materials": [
    {
      "doubleSided": true,
      "emissiveFactor": [
        0.078125,
        0.078125,
        0.078125
      ],
      "emissiveTexture": {
        "index": 1
      },
      "name": "Material.002",
      "pbrMetallicRoughness": {
        "baseColorTexture": {
          "index": 0
        },
        "metallicFactor": 0.0
      }
    }
  ],
  "meshes": [
    {
      "name": "TerrainMesh.001_Material.002_0",
      "primitives": [
        {
          "attributes": {
            "NORMAL": 1,
            "POSITION": 0,
            "TEXCOORD_0": 2
          },
          "indices": 3,
          "material": 0,
          "mode": 4
        }
      ]
    }
  ],
  "nodes": [
    {
      "children": [
        1
      ],
      "matrix": [
        1.0,
        0.0,
        0.0,
        0.0,
        0.0,
        2.220446049250313e-16,
        -1.0,
        0.0,
        0.0,
        1.0,
        2.220446049250313e-16,
        0.0,
        0.0,
        0.0,
        0.0,
        1.0
      ],
      "name": "Sketchfab_model"
    },
    {
      "children": [
        2
      ],
      "matrix": [
        1.0,
        0.0,
        0.0,
        0.0,
        0.0,
        0.0,
        1.0,
        0.0,
        0.0,
        -1.0,
        0.0,
        0.0,
        0.0,
        0.0,
        0.0,
        1.0
      ],
      "name": "393f1c13a86948818dc59f00a93d1b3a.fbx"
    },
    {
      "children": [
        3,
        5
      ],
      "name": "RootNode"
    },
    {
      "children": [
        4
      ],
      "matrix": [
        1000.0,
        0.0,
        0.0,
        0.0,
        0.0,
        -0.0001629206793918314,
        -999.9999999999868,
        0.0,
        0.0,
        999.9999999999868,
        -0.0001629206793918314,
        0.0,
        0.0,
        0.0,
        0.0,
        1.0
      ],
      "name": "TerrainMesh.001"
    },
    {
      "mesh": 0,
      "name": "TerrainMesh.001_Material.002_0"
    },
    {
      "children": [
        6
      ],
      "matrix": [
        1.9470718870540082e-05,
        0.0,
        -99.99999999999811,
        0.0,
        2.512148102658649e-13,
        100.0,
        4.8913329480407724e-20,
        0.0,
        99.99999999999811,
        -2.5121481026586963e-13,
        1.9470718870540082e-05,
        0.0,
        0.0,
        0.0,
        1000.0,
        1.0
      ],
      "name": "Camera"
    },
    {
      "name": "Object_6"
    }
  ],
  "samplers": [
    {
      "magFilter": 9729,
      "minFilter": 9987,
      "wrapS": 10497,
      "wrapT": 10497
    }
  ],
  "scene": 0,
  "scenes": [
    {
      "name": "Sketchfab_Scene",
      "nodes": [
        0
      ]
    }
  ],
  "textures": [
    {
      "sampler": 0,
      "source": 0
    },
    {
      "sampler": 0,
      "source": 1
    }
  ]
}
