{
  "accessors": [
    {
      "bufferView": 2,
      "componentType": 5126,
      "count": 4587,
      "max": [
        3.263093948364258,
        1.0036979913711548,
        4.659514904022217
      ],
      "min": [
        -3.2599658966064453,
        -0.9954239726066589,
        0.002369999885559082
      ],
      "type": "VEC3"
    },
    {
      "bufferView": 2,
      "byteOffset": 55044,
      "componentType": 5126,
      "count": 4587,
      "max": [
        0.999945342540741,
        0.9999169707298279,
        0.9985399842262268
      ],
      "min": [
        -0.999962329864502,
        -0.9999422430992126,
        -0.9998206496238708
      ],
      "type": "VEC3"
    },
    {
      "bufferView": 3,
      "componentType": 5126,
      "count": 4587,
      "max": [
        0.9999510645866394,
        0.9981306195259094,
        0.9968202114105225,
        1.0
      ],
      "min": [
        -0.999984622001648,
        -0.9997044801712036,
        -0.9995295405387878,
        1.0
      ],
      "type": "VEC4"
    },
    {
      "bufferView": 1,
      "componentType": 5126,
      "count": 4587,
      "max": [
        0.9950249791145325,
        0.9983329772949219
      ],
      "min": [
        0.0016670000040903687,
        0.00648800004273653
      ],
      "type": "VEC2"
    },
    {
      "bufferView": 0,
      "componentType": 5125,
      "count": 24162,
      "type": "SCALAR"
    }
  ],
  "asset": {
    "extras": {
      "author": "alitural (https://sketchfab.com/alitural)",
      "license": "CC-BY-4.0 (http://creativecommons.org/licenses/by/4.0/)",
      "source": "https://sketchfab.com/3d-models/coyote-d470f716e00f484b853033ed2d4fdfca",
      "title": "Coyote"
    },
    "generator": "Sketchfab-15.27.0",
    "version": "2.0"
  },
  "bufferViews": [
    {
      "buffer": 0,
      "byteLength": 96648,
      "name": "floatBufferViews",
      "target": 34963
    },
    {
      "buffer": 0,
      "byteLength": 36696,
      "byteOffset": 96648,
      "byteStride": 8,
      "name": "floatBufferViews",
      "target": 34962
    },
    {
      "buffer": 0,
      "byteLength": 110088,
      "byteOffset": 133344,
      "byteStride": 12,
      "name": "floatBufferViews",
      "target": 34962
    },
    {
      "buffer": 0,
      "byteLength": 73392,
      "byteOffset": 243432,
      "byteStride": 16,
      "name": "floatBufferViews",
      "target": 34962
    }
  ],
  "buffers": [
    {
      "byteLength": 316824,
      "uri": "scene.bin"
    }
  ],
  "extensionsUsed": [
    "KHR_materials_specular"
  ],
  "images": [
    {
      "uri": "textures/coyote_mat_1_baseColor.jpeg"
    },
    {
      "uri": "textures/coyote_mat_1_normal.png"
    }
  ],
  "materials": [
    {
      "doubleSided": true,
      "extensions": {
        "KHR_materials_specular": {
          "specularColorFactor": [
            1.0,
            1.0,
            1.0
          ],
          "specularFactor": 0.17523862929867975
        }
      },
      "name": "coyote_mat_1",
      "normalTexture": {
        "index": 1
      },
      "pbrMetallicRoughness": {
        "baseColorTexture": {
          "index": 0
        },
        "metallicFactor": 0.0
      }
    }
  ],
  "meshes": [
    {
      "name": "Object_0",
      "primitives": [
        {
          "attributes": {
            "NORMAL": 1,
            "POSITION": 0,
            "TANGENT": 2,
            "TEXCOORD_0": 3
          },
          "indices": 4,
          "material": 0,
          "mode": 4
        }
      ]
    }
  ],
  "nodes": [
    {
      "children": [
        1
      ],
      "matrix": [
        0.2061711698770523,
        0.0,
        0.0,
        0.0,
        0.0,
        4.5779195962281595e-17,
        -0.2061711698770523,
        0.0,
        0.0,
        0.2061711698770523,
        4.5779195962281595e-17,
        0.0,
        0.0,
        0.0,
        0.0,
        1.0
      ],
      "name": "Sketchfab_model"
    },
    {
      "children": [
        2
      ],
      "name": "Coyote_model_low_poly.obj.cleaner.materialmerger.gles"
    },
    {
      "mesh": 0,
      "name": "Object_2"
    }
  ],
  "samplers": [
    {
      "magFilter": 9729,
      "minFilter": 9987,
      "wrapS": 10497,
      "wrapT": 10497
    }
  ],
  "scene": 0,
  "scenes": [
    {
      "name": "Sketchfab_Scene",
      "nodes": [
        0
      ]
    }
  ],
  "textures": [
    {
      "sampler": 0,
      "source": 0
    },
    {
      "sampler": 0,
      "source": 1
    }
  ]
}
